{
  "accessors": [
    {
      "bufferView": 2,
      "componentType": 5126,
      "count": 20,
      "max": [
        266.25244140625,
        -5070.4013671875,
        -5.381103515625
      ],
      "min": [
        122.607666015625,
        -5186.0751953125,
        -107.420166015625
      ],
      "type": "VEC3"
    },
    {
      "bufferView": 2,
      "byteOffset": 240,
      "componentType": 5126,
      "count": 20,
      "max": [
        0.9872295260429382,
        0.7112063765525818,
        0.03699905797839165
      ],
      "min": [
        -0.9722751975059509,
        0.05250156670808792,
        -0.7029063105583191
      ],
      "type": "VEC3"
    },
    {
      "bufferView": 1,
      "componentType": 5126,
      "count": 20,
      "max": [
        0.5449000000953674,
        0.8535000085830688
      ],
      "min": [
        0.5019999742507935,
        0.7792999744415283
      ],
      "type": "VEC2"
    },
    {
      "bufferView": 0,
      "componentType": 5125,
      "count": 30,
      "type": "SCALAR"
    },
    {
      "bufferView": 2,
      "byteOffset": 480,
      "componentType": 5126,
      "count": 97,
      "max": [
        527.712890625,
        -5434.54248046875,
        608.8154296875
      ],
      "min": [
        -157.83740234375,
        -6247.6806640625,
        183.62353515625
      ],
      "type": "VEC3"
    },
    {
      "bufferView": 2,
      "byteOffset": 1644,
      "componentType": 5126,
      "count": 97,
      "max": [
        0.8236240148544312,
        0.7065138220787048,
        0.8840134739875793
      ],
      "min": [
        -0.7973066568374634,
        -0.7277803421020508,
        -0.8676974177360535
      ],
      "type": "VEC3"
    },
    {
      "bufferView": 1,
      "byteOffset": 160,
      "componentType": 5126,
      "count": 97,
      "max": [
        0.9667999744415283,
        0.7324000000953674
      ],
      "min": [
        0.9394999742507935,
        0.6582000255584717
      ],
      "type": "VEC2"
    },
    {
      "bufferView": 0,
      "byteOffset": 120,
      "componentType": 5125,
      "count": 144,
      "type": "SCALAR"
    },
    {
      "bufferView": 2,
      "byteOffset": 2808,
      "componentType": 5126,
      "count": 202,
      "max": [
        499.163330078125,
        -5150.498046875,
        1328.647705078125
      ],
      "min": [
        -62.316650390625,
        -5967.982421875,
        -13.381103515625
      ],
      "type": "VEC3"
    },
    {
      "bufferView": 2,
      "byteOffset": 5232,
      "componentType": 5126,
      "count": 202,
      "max": [
        0.895139753818512,
        0.9600846767425537,
        0.8147876858711243
      ],
      "min": [
        -0.99649977684021,
        -0.9264020323753357,
        -0.9810323715209961
      ],
      "type": "VEC3"
    },
    {
      "bufferView": 1,
      "byteOffset": 936,
      "componentType": 5126,
      "count": 202,
      "max": [
        0.9980000257492065,
        0.9980000257492065
      ],
      "min": [
        0.4706999957561493,
        0.10740000009536743
      ],
      "type": "VEC2"
    },
    {
      "bufferView": 0,
      "byteOffset": 696,
      "componentType": 5125,
      "count": 294,
      "type": "SCALAR"
    },
    {
      "bufferView": 2,
      "byteOffset": 7656,
      "componentType": 5126,
      "count": 56,
      "max": [
        573.890625,
        -5343.724609375,
        1385.9609375
      ],
      "min": [
        -102.443359375,
        -5967.982421875,
        1073.7880859375
      ],
      "type": "VEC3"
    },
    {
      "bufferView": 2,
      "byteOffset": 8328,
      "componentType": 5126,
      "count": 56,
      "max": [
        0.967800498008728,
        0.7908402681350708,
        0.4448049068450928
      ],
      "min": [
        -0.9820684194564819,
        -0.5184061527252197,
        -0.5914780497550964
      ],
      "type": "VEC3"
    },
    {
      "bufferView": 1,
      "byteOffset": 2552,
      "componentType": 5126,
      "count": 56,
      "max": [
        0.1543000042438507,
        0.9746000170707703
      ],
      "min": [
        0.0020000000949949026,
        0.8769999742507935
      ],
      "type": "VEC2"
    },
    {
      "bufferView": 0,
      "byteOffset": 1872,
      "componentType": 5125,
      "count": 72,
      "type": "SCALAR"
    },
    {
      "bufferView": 2,
      "byteOffset": 9000,
      "componentType": 5126,
      "count": 28,
      "max": [
        573.890625,
        -5354.6318359375,
        1385.9609375
      ],
      "min": [
        -98.947021484375,
        -5967.982421875,
        453.7216796875
      ],
      "type": "VEC3"
    },
    {
      "bufferView": 2,
      "byteOffset": 9336,
      "componentType": 5126,
      "count": 28,
      "max": [
        0.35760122537612915,
        -0.2655957341194153,
        0.9640845060348511
      ],
      "min": [
        0.00039999355794861913,
        -0.9579329490661621,
        -0.4994131624698639
      ],
      "type": "VEC3"
    },
    {
      "bufferView": 1,
      "byteOffset": 3000,
      "componentType": 5126,
      "count": 28,
      "max": [
        0.6503999829292297,
        0.9980000257492065
      ],
      "min": [
        0.5019999742507935,
        0.7832000255584717
      ],
      "type": "VEC2"
    },
    {
      "bufferView": 0,
      "byteOffset": 2160,
      "componentType": 5125,
      "count": 48,
      "type": "SCALAR"
    },
    {
      "bufferView": 2,
      "byteOffset": 9672,
      "componentType": 5126,
      "count": 190,
      "max": [
        491.962890625,
        -5179.75048828125,
        1254.20947265625
      ],
      "min": [
        -6.48876953125,
        -5870.48046875,
        101.196533203125
      ],
      "type": "VEC3"
    },
    {
      "bufferView": 2,
      "byteOffset": 11952,
      "componentType": 5126,
      "count": 190,
      "max": [
        0.999178409576416,
        0.9927926659584045,
        0.7309858202934265
      ],
      "min": [
        -0.9770382642745972,
        -0.9930247068405151,
        -0.7158177495002747
      ],
      "type": "VEC3"
    },
    {
      "bufferView": 1,
      "byteOffset": 3224,
      "componentType": 5126,
      "count": 190,
      "max": [
        0.6855000257492065,
        0.8964999914169312
      ],
      "min": [
        0.2831999957561493,
        0.001999974250793457
      ],
      "type": "VEC2"
    },
    {
      "bufferView": 0,
      "byteOffset": 2352,
      "componentType": 5125,
      "count": 246,
      "type": "SCALAR"
    },
    {
      "bufferView": 2,
      "byteOffset": 14232,
      "componentType": 5126,
      "count": 24,
      "max": [
        565.3701171875,
        -5343.724609375,
        1385.9609375
      ],
      "min": [
        -102.443359375,
        -5842.2177734375,
        1148.4765625
      ],
      "type": "VEC3"
    },
    {
      "bufferView": 2,
      "byteOffset": 14520,
      "componentType": 5126,
      "count": 24,
      "max": [
        0.3203987181186676,
        0.8977041840553284,
        0.5832976698875427
      ],
      "min": [
        -0.5337012410163879,
        0.5296117067337036,
        -0.8233181834220886
      ],
      "type": "VEC3"
    },
    {
      "bufferView": 1,
      "byteOffset": 4744,
      "componentType": 5126,
      "count": 24,
      "max": [
        0.6230000257492065,
        0.9940999746322632
      ],
      "min": [
        0.5957000255584717,
        0.9160000085830688
      ],
      "type": "VEC2"
    },
    {
      "bufferView": 0,
      "byteOffset": 3336,
      "componentType": 5125,
      "count": 36,
      "type": "SCALAR"
    },
    {
      "bufferView": 2,
      "byteOffset": 14808,
      "componentType": 5126,
      "count": 114,
      "max": [
        477.398681640625,
        -5150.498046875,
        670.441650390625
      ],
      "min": [
        -77.5927734375,
        -5634.5966796875,
        428.687744140625
      ],
      "type": "VEC3"
    },
    {
      "bufferView": 2,
      "byteOffset": 16176,
      "componentType": 5126,
      "count": 114,
      "max": [
        0.8897837996482849,
        0.9725042581558228,
        0.9190722703933716
      ],
      "min": [
        -0.8436145186424255,
        -0.8229217529296875,
        -0.7679400444030762
      ],
      "type": "VEC3"
    },
    {
      "bufferView": 1,
      "byteOffset": 4936,
      "componentType": 5126,
      "count": 114,
      "max": [
        0.9785000085830688,
        0.8026999831199646
      ],
      "min": [
        0.5019999742507935,
        0.001999974250793457
      ],
      "type": "VEC2"
    },
    {
      "bufferView": 0,
      "byteOffset": 3480,
      "componentType": 5125,
      "count": 162,
      "type": "SCALAR"
    },
    {
      "bufferView": 2,
      "byteOffset": 17544,
      "componentType": 5126,
      "count": 25,
      "max": [
        477.398681640625,
        -5158.734375,
        604.9404296875
      ],
      "min": [
        -77.5927734375,
        -5634.5966796875,
        428.687744140625
      ],
      "type": "VEC3"
    },
    {
      "bufferView": 2,
      "byteOffset": 17844,
      "componentType": 5126,
      "count": 25,
      "max": [
        0.8458084464073181,
        0.5181183218955994,
        0.8354070782661438
      ],
      "min": [
        -0.8103693127632141,
        -0.8200979828834534,
        -0.47613224387168884
      ],
      "type": "VEC3"
    },
    {
      "bufferView": 1,
      "byteOffset": 5848,
      "componentType": 5126,
      "count": 25,
      "max": [
        0.9824000000953674,
        0.6035000085830688
      ],
      "min": [
        0.9394999742507935,
        0.08009999990463257
      ],
      "type": "VEC2"
    },
    {
      "bufferView": 0,
      "byteOffset": 4128,
      "componentType": 5125,
      "count": 33,
      "type": "SCALAR"
    },
    {
      "bufferView": 2,
      "byteOffset": 18144,
      "componentType": 5126,
      "count": 115,
      "max": [
        502.972900390625,
        -5169.7646484375,
        606.26123046875
      ],
      "min": [
        -45.939697265625,
        -5631.19677734375,
        133.689453125
      ],
      "type": "VEC3"
    },
    {
      "bufferView": 2,
      "byteOffset": 19524,
      "componentType": 5126,
      "count": 115,
      "max": [
        0.9142863154411316,
        0.6879190802574158,
        0.9914414882659912
      ],
      "min": [
        -0.8625048995018005,
        -0.7860335111618042,
        -0.7983067631721497
      ],
      "type": "VEC3"
    },
    {
      "bufferView": 1,
      "byteOffset": 6048,
      "componentType": 5126,
      "count": 115,
      "max": [
        0.9824000000953674,
        0.9315999746322632
      ],
      "min": [
        0.5019999742507935,
        0.4707000255584717
      ],
      "type": "VEC2"
    },
    {
      "bufferView": 0,
      "byteOffset": 4260,
      "componentType": 5125,
      "count": 165,
      "type": "SCALAR"
    },
    {
      "bufferView": 2,
      "byteOffset": 20904,
      "componentType": 5126,
      "count": 26,
      "max": [
        4.184814453125,
        -5434.54248046875,
        608.8154296875
      ],
      "min": [
        -157.83740234375,
        -5636.595703125,
        491.06298828125
      ],
      "type": "VEC3"
    },
    {
      "bufferView": 2,
      "byteOffset": 21216,
      "componentType": 5126,
      "count": 26,
      "max": [
        0.7973066568374634,
        0.5154043436050415,
        0.8956443071365356
      ],
      "min": [
        -0.7973066568374634,
        -0.5154043436050415,
        -0.8956443071365356
      ],
      "type": "VEC3"
    },
    {
      "bufferView": 1,
      "byteOffset": 6968,
      "componentType": 5126,
      "count": 26,
      "max": [
        0.48240000009536743,
        0.9980000257492065
      ],
      "min": [
        0.298799991607666,
        0.9707000255584717
      ],
      "type": "VEC2"
    },
    {
      "bufferView": 0,
      "byteOffset": 4920,
      "componentType": 5125,
      "count": 48,
      "type": "SCALAR"
    },
    {
      "bufferView": 2,
      "byteOffset": 21528,
      "componentType": 5126,
      "count": 44,
      "max": [
        504.130859375,
        -5198.208984375,
        529.132568359375
      ],
      "min": [
        -62.316650390625,
        -5597.69921875,
        258.86279296875
      ],
      "type": "VEC3"
    },
    {
      "bufferView": 2,
      "byteOffset": 22056,
      "componentType": 5126,
      "count": 44,
      "max": [
        0.8475807905197144,
        0.7479234337806702,
        0.6339941024780273
      ],
      "min": [
        -0.8791747093200684,
        -0.713978111743927,
        -0.5428164005279541
      ],
      "type": "VEC3"
    },
    {
      "bufferView": 1,
      "byteOffset": 7176,
      "componentType": 5126,
      "count": 44,
      "max": [
        0.9824000000953674,
        0.8417999744415283
      ],
      "min": [
        0.9394999742507935,
        0.7245999574661255
      ],
      "type": "VEC2"
    },
    {
      "bufferView": 0,
      "byteOffset": 5112,
      "componentType": 5125,
      "count": 60,
      "type": "SCALAR"
    },
    {
      "bufferView": 2,
      "byteOffset": 22584,
      "componentType": 5126,
      "count": 16,
      "max": [
        504.130859375,
        -5235.8916015625,
        529.132568359375
      ],
      "min": [
        -30.22216796875,
        -5597.69921875,
        275.4443359375
      ],
      "type": "VEC3"
    },
    {
      "bufferView": 2,
      "byteOffset": 22776,
      "componentType": 5126,
      "count": 16,
      "max": [
        0.6959183216094971,
        -0.6510171294212341,
        0.4372207224369049
      ],
      "min": [
        0.5173957943916321,
        -0.8083103895187378,
        0.24620315432548523
      ],
      "type": "VEC3"
    },
    {
      "bufferView": 1,
      "byteOffset": 7528,
      "componentType": 5126,
      "count": 16,
      "max": [
        0.5449000000953674,
        0.4940999746322632
      ],
      "min": [
        0.5019999742507935,
        0.37699997425079346
      ],
      "type": "VEC2"
    },
    {
      "bufferView": 0,
      "byteOffset": 5352,
      "componentType": 5125,
      "count": 24,
      "type": "SCALAR"
    },
    {
      "bufferView": 2,
      "byteOffset": 22968,
      "componentType": 5126,
      "count": 8,
      "max": [
        502.972900390625,
        -5299.3037109375,
        341.012451171875
      ],
      "min": [
        89.338623046875,
        -5576.8984375,
        243.850830078125
      ],
      "type": "VEC3"
    },
    {
      "bufferView": 2,
      "byteOffset": 23064,
      "componentType": 5126,
      "count": 8,
      "max": [
        0.8212087154388428,
        -0.5706060528755188,
        0.005000052973628044
      ],
      "min": [
        0.5247117877006531,
        -0.8467190861701965,
        -0.08800198137760162
      ],
      "type": "VEC3"
    },
    {
      "bufferView": 1,
      "byteOffset": 7656,
      "componentType": 5126,
      "count": 8,
      "max": [
        0.49799999594688416,
        0.9901999831199646
      ],
      "min": [
        0.45509999990463257,
        0.9707000255584717
      ],
      "type": "VEC2"
    },
    {
      "bufferView": 0,
      "byteOffset": 5448,
      "componentType": 5125,
      "count": 12,
      "type": "SCALAR"
    },
    {
      "bufferView": 2,
      "byteOffset": 23160,
      "componentType": 5126,
      "count": 11,
      "max": [
        378.178466796875,
        -5396.76171875,
        511.89892578125
      ],
      "min": [
        101.709716796875,
        -5491.36669921875,
        357.72265625
      ],
      "type": "VEC3"
    },
    {
      "bufferView": 2,
      "byteOffset": 23292,
      "componentType": 5126,
      "count": 11,
      "max": [
        0.5152937769889832,
        -0.846089780330658,
        -0.13639836013317108
      ],
      "min": [
        0.02579948864877224,
        -0.9779804944992065,
        -0.2070958912372589
      ],
      "type": "VEC3"
    },
    {
      "bufferView": 1,
      "byteOffset": 7720,
      "componentType": 5126,
      "count": 11,
      "max": [
        0.5410000085830688,
        0.9785000085830688
      ],
      "min": [
        0.37700000405311584,
        0.9121000170707703
      ],
      "type": "VEC2"
    },
    {
      "bufferView": 0,
      "byteOffset": 5496,
      "componentType": 5125,
      "count": 15,
      "type": "SCALAR"
    },
    {
      "bufferView": 2,
      "byteOffset": 23424,
      "componentType": 5126,
      "count": 50,
      "max": [
        454.130126953125,
        -5154.47607421875,
        225.1337890625
      ],
      "min": [
        2.6416015625,
        -5480.7880859375,
        48.41943359375
      ],
      "type": "VEC3"
    },
    {
      "bufferView": 2,
      "byteOffset": 24024,
      "componentType": 5126,
      "count": 50,
      "max": [
        0.9427430033683777,
        0.8681308627128601,
        0.0842028483748436
      ],
      "min": [
        -0.7777220010757446,
        -0.8552232980728149,
        -0.8967970013618469
      ],
      "type": "VEC3"
    },
    {
      "bufferView": 1,
      "byteOffset": 7808,
      "componentType": 5126,
      "count": 50,
      "max": [
        0.35350000858306885,
        0.9785000085830688
      ],
      "min": [
        0.2831999957561493,
        0.9042999744415283
      ],
      "type": "VEC2"
    },
    {
      "bufferView": 0,
      "byteOffset": 5556,
      "componentType": 5125,
      "count": 66,
      "type": "SCALAR"
    },
    {
      "bufferView": 2,
      "byteOffset": 24624,
      "componentType": 5126,
      "count": 152,
      "max": [
        407.251953125,
        -5175.357421875,
        631.5625
      ],
      "min": [
        66.876708984375,
        -5491.36669921875,
        -4.478759765625
      ],
      "type": "VEC3"
    },
    {
      "bufferView": 2,
      "byteOffset": 26448,
      "componentType": 5126,
      "count": 152,
      "max": [
        0.7681043148040771,
        0.9999562501907349,
        0.8613919019699097
      ],
      "min": [
        -0.9516093134880066,
        -0.959786593914032,
        -0.8752028942108154
      ],
      "type": "VEC3"
    },
    {
      "bufferView": 1,
      "byteOffset": 8208,
      "componentType": 5126,
      "count": 152,
      "max": [
        0.9315999746322632,
        0.7792999744415283
      ],
      "min": [
        0.0020000000949949026,
        0.001999974250793457
      ],
      "type": "VEC2"
    },
    {
      "bufferView": 0,
      "byteOffset": 5820,
      "componentType": 5125,
      "count": 198,
      "type": "SCALAR"
    },
    {
      "bufferView": 2,
      "byteOffset": 28272,
      "componentType": 5126,
      "count": 8,
      "max": [
        378.178466796875,
        -5284.4697265625,
        486.9794921875
      ],
      "min": [
        89.78271484375,
        -5486.5166015625,
        343.1015625
      ],
      "type": "VEC3"
    },
    {
      "bufferView": 2,
      "byteOffset": 28368,
      "componentType": 5126,
      "count": 8,
      "max": [
        0.9251910448074341,
        0.37229639291763306,
        -0.07359929382801056
      ],
      "min": [
        -0.9296123385429382,
        -0.13830183446407318,
        -0.3416045308113098
      ],
      "type": "VEC3"
    },
    {
      "bufferView": 1,
      "byteOffset": 9424,
      "componentType": 5126,
      "count": 8,
      "max": [
        0.3418000042438507,
        0.951200008392334
      ],
      "min": [
        0.25200000405311584,
        0.8769999742507935
      ],
      "type": "VEC2"
    },
    {
      "bufferView": 0,
      "byteOffset": 6612,
      "componentType": 5125,
      "count": 12,
      "type": "SCALAR"
    },
    {
      "bufferView": 2,
      "byteOffset": 28464,
      "componentType": 5126,
      "count": 53,
      "max": [
        263.948974609375,
        -5104.833984375,
        33.039794921875
      ],
      "min": [
        122.607666015625,
        -5255.240234375,
        -120.62109375
      ],
      "type": "VEC3"
    },
    {
      "bufferView": 2,
      "byteOffset": 29100,
      "componentType": 5126,
      "count": 53,
      "max": [
        0.8319497108459473,
        0.2875114679336548,
        0.8993847966194153
      ],
      "min": [
        -0.9270084500312805,
        -0.8899375796318054,
        -0.956538200378418
      ],
      "type": "VEC3"
    },
    {
      "bufferView": 1,
      "byteOffset": 9488,
      "componentType": 5126,
      "count": 53,
      "max": [
        0.513700008392334,
        0.5175999999046326
      ],
      "min": [
        0.4081999957561493,
        0.3848000168800354
      ],
      "type": "VEC2"
    },
    {
      "bufferView": 0,
      "byteOffset": 6660,
      "componentType": 5125,
      "count": 69,
      "type": "SCALAR"
    },
    {
      "bufferView": 2,
      "byteOffset": 29736,
      "componentType": 5126,
      "count": 105,
      "max": [
        266.25244140625,
        -5065.29052734375,
        99.567626953125
      ],
      "min": [
        122.607666015625,
        -5221.349609375,
        -72.485107421875
      ],
      "type": "VEC3"
    },
    {
      "bufferView": 2,
      "byteOffset": 30996,
      "componentType": 5126,
      "count": 105,
      "max": [
        0.9859769344329834,
        0.9917244911193848,
        0.7949532270431519
      ],
      "min": [
        -0.9519785642623901,
        -0.9350852966308594,
        -0.587006688117981
      ],
      "type": "VEC3"
    },
    {
      "bufferView": 1,
      "byteOffset": 9912,
      "componentType": 5126,
      "count": 105,
      "max": [
        0.5917999744415283,
        0.9628999829292297
      ],
      "min": [
        0.4081999957561493,
        0.22070002555847168
      ],
      "type": "VEC2"
    },
    {
      "bufferView": 0,
      "byteOffset": 6936,
      "componentType": 5125,
      "count": 129,
      "type": "SCALAR"
    }
  ],
  "asset": {
    "extras": {
      "author": "bioandrew91 (https://sketchfab.com/bioandrew91)",
      "license": "CC-BY-4.0 (http://creativecommons.org/licenses/by/4.0/)",
      "source": "https://sketchfab.com/3d-models/metal-gear-solid-vr-missions-ninja-gray-fox-eadcd27a301c4f39b4850686e1804183",
      "title": "Metal Gear Solid VR Missions - Ninja (Gray Fox)"
    },
    "generator": "Sketchfab-16.65.0",
    "version": "2.0"
  },
  "bufferViews": [
    {
      "buffer": 0,
      "byteLength": 7452,
      "name": "floatBufferViews",
      "target": 34963
    },
    {
      "buffer": 0,
      "byteLength": 10752,
      "byteOffset": 7452,
      "byteStride": 8,
      "name": "floatBufferViews",
      "target": 34962
    },
    {
      "buffer": 0,
      "byteLength": 32256,
      "byteOffset": 18204,
      "byteStride": 12,
      "name": "floatBufferViews",
      "target": 34962
    }
  ],
  "buffers": [
    {
      "byteLength": 50460,
      "uri": "scene.bin"
    }
  ],
  "extensionsUsed": [
    "KHR_materials_unlit"
  ],
  "images": [
    {
      "uri": "textures/957FEB68E6F12E5FE6CC9EBF1892975E_baseColor.png"
    },
    {
      "uri": "textures/2434B9B40AC7B4EB261A33E4B12E46C9_baseColor.png"
    },
    {
      "uri": "textures/7E81EDD410A163F5F3D9438966FE5477_baseColor.png"
    },
    {
      "uri": "textures/587A0359876E0D06A8624210BBE782DC_baseColor.png"
    },
    {
      "uri": "textures/C99A071B9FE7D6BE89D4004DBC020349_baseColor.png"
    },
    {
      "uri": "textures/D61C80B4082AE1DA2816FE88500C4EF8_baseColor.png"
    },
    {
      "uri": "textures/C3FE1BDC6E17FDB972EDADFEFE2191B1_baseColor.png"
    },
    {
      "uri": "textures/BF5C6E1F146F6995A0DD9A8183725197_baseColor.png"
    },
    {
      "uri": "textures/99F50A9B5070A26288222CCB211CE72C_baseColor.png"
    },
    {
      "uri": "textures/FF9F0810641F8C9F025C0AA834174999_baseColor.png"
    },
    {
      "uri": "textures/A04607DA629E8F662B0CC516402C4904_baseColor.png"
    },
    {
      "uri": "textures/F627DB05CABF11FC135BF82B68AE4884_baseColor.png"
    },
    {
      "uri": "textures/72845853F99182B52E8E772C4B661DE1_baseColor.png"
    },
    {
      "uri": "textures/71079C6789858394D3134CB101876BEC_baseColor.png"
    },
    {
      "uri": "textures/45E4643C283B0151B00F109789A627C9_baseColor.png"
    },
    {
      "uri": "textures/EB477727DE5C61FE06500A9DE16ABD16_baseColor.png"
    },
    {
      "uri": "textures/1D101E174E81048602B41BF84DA1B891_baseColor.png"
    },
    {
      "uri": "textures/F0E96EA7E00922CCB2B12284DCA3D0DC_baseColor.png"
    },
    {
      "uri": "textures/EABDCB90FEABA3C6C1AA7020D8F9A1E7_baseColor.png"
    },
    {
      "uri": "textures/A4AE6BAC337020606F49117E854D8B3D_baseColor.png"
    }
  ],
  "materials": [
    {
      "doubleSided": true,
      "extensions": {
        "KHR_materials_unlit": {}
      },
      "name": "957FEB68E6F12E5FE6CC9EBF1892975E",
      "pbrMetallicRoughness": {
        "baseColorTexture": {
          "index": 0
        },
        "metallicFactor": 0.0
      }
    },
    {
      "alphaMode": "BLEND",
      "doubleSided": true,
      "extensions": {
        "KHR_materials_unlit": {}
      },
      "name": "2434B9B40AC7B4EB261A33E4B12E46C9",
      "pbrMetallicRoughness": {
        "baseColorTexture": {
          "index": 1
        },
        "metallicFactor": 0.0
      }
    },
    {
      "doubleSided": true,
      "extensions": {
        "KHR_materials_unlit": {}
      },
      "name": "7E81EDD410A163F5F3D9438966FE5477",
      "pbrMetallicRoughness": {
        "baseColorTexture": {
          "index": 2
        },
        "metallicFactor": 0.0
      }
    },
    {
      "doubleSided": true,
      "extensions": {
        "KHR_materials_unlit": {}
      },
      "name": "587A0359876E0D06A8624210BBE782DC",
      "pbrMetallicRoughness": {
        "baseColorTexture": {
          "index": 3
        },
        "metallicFactor": 0.0
      }
    },
    {
      "doubleSided": true,
      "extensions": {
        "KHR_materials_unlit": {}
      },
      "name": "C99A071B9FE7D6BE89D4004DBC020349",
      "pbrMetallicRoughness": {
        "baseColorTexture": {
          "index": 4
        },
        "metallicFactor": 0.0
      }
    },
    {
      "doubleSided": true,
      "extensions": {
        "KHR_materials_unlit": {}
      },
      "name": "D61C80B4082AE1DA2816FE88500C4EF8",
      "pbrMetallicRoughness": {
        "baseColorTexture": {
          "index": 5
        },
        "metallicFactor": 0.0
      }
    },
    {
      "doubleSided": true,
      "extensions": {
        "KHR_materials_unlit": {}
      },
      "name": "C3FE1BDC6E17FDB972EDADFEFE2191B1",
      "pbrMetallicRoughness": {
        "baseColorTexture": {
          "index": 6
        },
        "metallicFactor": 0.0
      }
    },
    {
      "doubleSided": true,
      "extensions": {
        "KHR_materials_unlit": {}
      },
      "name": "BF5C6E1F146F6995A0DD9A8183725197",
      "pbrMetallicRoughness": {
        "baseColorTexture": {
          "index": 7
        },
        "metallicFactor": 0.0
      }
    },
    {
      "doubleSided": true,
      "extensions": {
        "KHR_materials_unlit": {}
      },
      "name": "99F50A9B5070A26288222CCB211CE72C",
      "pbrMetallicRoughness": {
        "baseColorTexture": {
          "index": 8
        },
        "metallicFactor": 0.0
      }
    },
    {
      "doubleSided": true,
      "extensions": {
        "KHR_materials_unlit": {}
      },
      "name": "FF9F0810641F8C9F025C0AA834174999",
      "pbrMetallicRoughness": {
        "baseColorTexture": {
          "index": 9
        },
        "metallicFactor": 0.0
      }
    },
    {
      "doubleSided": true,
      "extensions": {
        "KHR_materials_unlit": {}
      },
      "name": "A04607DA629E8F662B0CC516402C4904",
      "pbrMetallicRoughness": {
        "baseColorTexture": {
          "index": 10
        },
        "metallicFactor": 0.0
      }
    },
    {
      "doubleSided": true,
      "extensions": {
        "KHR_materials_unlit": {}
      },
      "name": "F627DB05CABF11FC135BF82B68AE4884",
      "pbrMetallicRoughness": {
        "baseColorTexture": {
          "index": 11
        },
        "metallicFactor": 0.0
      }
    },
    {
      "doubleSided": true,
      "extensions": {
        "KHR_materials_unlit": {}
      },
      "name": "72845853F99182B52E8E772C4B661DE1",
      "pbrMetallicRoughness": {
        "baseColorTexture": {
          "index": 12
        },
        "metallicFactor": 0.0
      }
    },
    {
      "doubleSided": true,
      "extensions": {
        "KHR_materials_unlit": {}
      },
      "name": "71079C6789858394D3134CB101876BEC",
      "pbrMetallicRoughness": {
        "baseColorTexture": {
          "index": 13
        },
        "metallicFactor": 0.0
      }
    },
    {
      "doubleSided": true,
      "extensions": {
        "KHR_materials_unlit": {}
      },
      "name": "45E4643C283B0151B00F109789A627C9",
      "pbrMetallicRoughness": {
        "baseColorTexture": {
          "index": 14
        },
        "metallicFactor": 0.0
      }
    },
    {
      "doubleSided": true,
      "extensions": {
        "KHR_materials_unlit": {}
      },
      "name": "EB477727DE5C61FE06500A9DE16ABD16",
      "pbrMetallicRoughness": {
        "baseColorTexture": {
          "index": 15
        },
        "metallicFactor": 0.0
      }
    },
    {
      "doubleSided": true,
      "extensions": {
        "KHR_materials_unlit": {}
      },
      "name": "1D101E174E81048602B41BF84DA1B891",
      "pbrMetallicRoughness": {
        "baseColorTexture": {
          "index": 16
        },
        "metallicFactor": 0.0
      }
    },
    {
      "doubleSided": true,
      "extensions": {
        "KHR_materials_unlit": {}
      },
      "name": "F0E96EA7E00922CCB2B12284DCA3D0DC",
      "pbrMetallicRoughness": {
        "baseColorTexture": {
          "index": 17
        },
        "metallicFactor": 0.0
      }
    },
    {
      "doubleSided": true,
      "extensions": {
        "KHR_materials_unlit": {}
      },
      "name": "EABDCB90FEABA3C6C1AA7020D8F9A1E7",
      "pbrMetallicRoughness": {
        "baseColorTexture": {
          "index": 18
        },
        "metallicFactor": 0.0
      }
    },
    {
      "doubleSided": true,
      "extensions": {
        "KHR_materials_unlit": {}
      },
      "name": "A4AE6BAC337020606F49117E854D8B3D",
      "pbrMetallicRoughness": {
        "baseColorTexture": {
          "index": 19
        },
        "metallicFactor": 0.0
      }
    }
  ],
  "meshes": [
    {
      "name": "Object_0",
      "primitives": [
        {
          "attributes": {
            "NORMAL": 1,
            "POSITION": 0,
            "TEXCOORD_0": 2
          },
          "indices": 3,
          "material": 0,
          "mode": 4
        }
      ]
    },
    {
      "name": "Object_1",
      "primitives": [
        {
          "attributes": {
            "NORMAL": 5,
            "POSITION": 4,
            "TEXCOORD_0": 6
          },
          "indices": 7,
          "material": 1,
          "mode": 4
        }
      ]
    },
    {
      "name": "Object_2",
      "primitives": [
        {
          "attributes": {
            "NORMAL": 9,
            "POSITION": 8,
            "TEXCOORD_0": 10
          },
          "indices": 11,
          "material": 2,
          "mode": 4
        }
      ]
    },
    {
      "name": "Object_3",
      "primitives": [
        {
          "attributes": {
            "NORMAL": 13,
            "POSITION": 12,
            "TEXCOORD_0": 14
          },
          "indices": 15,
          "material": 3,
          "mode": 4
        }
      ]
    },
    {
      "name": "Object_4",
      "primitives": [
        {
          "attributes": {
            "NORMAL": 17,
            "POSITION": 16,
            "TEXCOORD_0": 18
          },
          "indices": 19,
          "material": 4,
          "mode": 4
        }
      ]
    },
    {
      "name": "Object_5",
      "primitives": [
        {
          "attributes": {
            "NORMAL": 21,
            "POSITION": 20,
            "TEXCOORD_0": 22
          },
          "indices": 23,
          "material": 5,
          "mode": 4
        }
      ]
    },
    {
      "name": "Object_6",
      "primitives": [
        {
          "attributes": {
            "NORMAL": 25,
            "POSITION": 24,
            "TEXCOORD_0": 26
          },
          "indices": 27,
          "material": 6,
          "mode": 4
        }
      ]
    },
    {
      "name": "Object_7",
      "primitives": [
        {
          "attributes": {
            "NORMAL": 29,
            "POSITION": 28,
            "TEXCOORD_0": 30
          },
          "indices": 31,
          "material": 7,
          "mode": 4
        }
      ]
    },
    {
      "name": "Object_8",
      "primitives": [
        {
          "attributes": {
            "NORMAL": 33,
            "POSITION": 32,
            "TEXCOORD_0": 34
          },
          "indices": 35,
          "material": 8,
          "mode": 4
        }
      ]
    },
    {
      "name": "Object_9",
      "primitives": [
        {
          "attributes": {
            "NORMAL": 37,
            "POSITION": 36,
            "TEXCOORD_0": 38
          },
          "indices": 39,
          "material": 9,
          "mode": 4
        }
      ]
    },
    {
      "name": "Object_10",
      "primitives": [
        {
          "attributes": {
            "NORMAL": 41,
            "POSITION": 40,
            "TEXCOORD_0": 42
          },
          "indices": 43,
          "material": 10,
          "mode": 4
        }
      ]
    },
    {
      "name": "Object_11",
      "primitives": [
        {
          "attributes": {
            "NORMAL": 45,
            "POSITION": 44,
            "TEXCOORD_0": 46
          },
          "indices": 47,
          "material": 11,
          "mode": 4
        }
      ]
    },
    {
      "name": "Object_12",
      "primitives": [
        {
          "attributes": {
            "NORMAL": 49,
            "POSITION": 48,
            "TEXCOORD_0": 50
          },
          "indices": 51,
          "material": 12,
          "mode": 4
        }
      ]
    },
    {
      "name": "Object_13",
      "primitives": [
        {
          "attributes": {
            "NORMAL": 53,
            "POSITION": 52,
            "TEXCOORD_0": 54
          },
          "indices": 55,
          "material": 13,
          "mode": 4
        }
      ]
    },
    {
      "name": "Object_14",
      "primitives": [
        {
          "attributes": {
            "NORMAL": 57,
            "POSITION": 56,
            "TEXCOORD_0": 58
          },
          "indices": 59,
          "material": 14,
          "mode": 4
        }
      ]
    },
    {
      "name": "Object_15",
      "primitives": [
        {
          "attributes": {
            "NORMAL": 61,
            "POSITION": 60,
            "TEXCOORD_0": 62
          },
          "indices": 63,
          "material": 15,
          "mode": 4
        }
      ]
    },
    {
      "name": "Object_16",
      "primitives": [
        {
          "attributes": {
            "NORMAL": 65,
            "POSITION": 64,
            "TEXCOORD_0": 66
          },
          "indices": 67,
          "material": 16,
          "mode": 4
        }
      ]
    },
    {
      "name": "Object_17",
      "primitives": [
        {
          "attributes": {
            "NORMAL": 69,
            "POSITION": 68,
            "TEXCOORD_0": 70
          },
          "indices": 71,
          "material": 17,
          "mode": 4
        }
      ]
    },
    {
      "name": "Object_18",
      "primitives": [
        {
          "attributes": {
            "NORMAL": 73,
            "POSITION": 72,
            "TEXCOORD_0": 74
          },
          "indices": 75,
          "material": 18,
          "mode": 4
        }
      ]
    },
    {
      "name": "Object_19",
      "primitives": [
        {
          "attributes": {
            "NORMAL": 77,
            "POSITION": 76,
            "TEXCOORD_0": 78
          },
          "indices": 79,
          "material": 19,
          "mode": 4
        }
      ]
    }
  ],
  "nodes": [
    {
      "children": [
        1
      ],
      "matrix": [
        1.0,
        0.0,
        0.0,
        0.0,
        0.0,
        2.220446049250313e-16,
        -1.0,
        0.0,
        0.0,
        1.0,
        2.220446049250313e-16,
        0.0,
        0.0,
        0.0,
        0.0,
        1.0
      ],
      "name": "Sketchfab_model"
    },
    {
      "children": [
        2
      ],
      "name": "root"
    },
    {
      "children": [
        3
      ],
      "matrix": [
        1.0,
        0.0,
        0.0,
        0.0,
        0.0,
        2.220446049250313e-16,
        1.0,
        0.0,
        0.0,
        -1.0,
        2.220446049250313e-16,
        0.0,
        0.0,
        0.0,
        0.0,
        1.0
      ],
      "name": "GLTF_SceneRootNode"
    },
    {
      "children": [
        4,
        5,
        6,
        7,
        8,
        9,
        10,
        11,
        12,
        13,
        14,
        15,
        16,
        17,
        18,
        19,
        20,
        21,
        22,
        23
      ],
      "matrix": [
        1.0,
        0.0,
        0.0,
        0.0,
        0.0,
        0.20306795246118137,
        0.979164647382259,
        0.0,
        0.0,
        -0.979164647382259,
        0.20306795246118137,
        0.0,
        0.0,
        2484.985595703125,
        0.0,
        1.0
      ],
      "name": "shot_2025-05-09_17-02-37-570_0"
    },
    {
      "mesh": 0,
      "name": "Object_4"
    },
    {
      "mesh": 1,
      "name": "Object_5"
    },
    {
      "mesh": 2,
      "name": "Object_6"
    },
    {
      "mesh": 3,
      "name": "Object_7"
    },
    {
      "mesh": 4,
      "name": "Object_8"
    },
    {
      "mesh": 5,
      "name": "Object_9"
    },
    {
      "mesh": 6,
      "name": "Object_10"
    },
    {
      "mesh": 7,
      "name": "Object_11"
    },
    {
      "mesh": 8,
      "name": "Object_12"
    },
    {
      "mesh": 9,
      "name": "Object_13"
    },
    {
      "mesh": 10,
      "name": "Object_14"
    },
    {
      "mesh": 11,
      "name": "Object_15"
    },
    {
      "mesh": 12,
      "name": "Object_16"
    },
    {
      "mesh": 13,
      "name": "Object_17"
    },
    {
      "mesh": 14,
      "name": "Object_18"
    },
    {
      "mesh": 15,
      "name": "Object_19"
    },
    {
      "mesh": 16,
      "name": "Object_20"
    },
    {
      "mesh": 17,
      "name": "Object_21"
    },
    {
      "mesh": 18,
      "name": "Object_22"
    },
    {
      "mesh": 19,
      "name": "Object_23"
    }
  ],
  "samplers": [
    {
      "magFilter": 9729,
      "minFilter": 9987,
      "wrapS": 10497,
      "wrapT": 10497
    }
  ],
  "scene": 0,
  "scenes": [
    {
      "name": "Sketchfab_Scene",
      "nodes": [
        0
      ]
    }
  ],
  "textures": [
    {
      "sampler": 0,
      "source": 0
    },
    {
      "sampler": 0,
      "source": 1
    },
    {
      "sampler": 0,
      "source": 2
    },
    {
      "sampler": 0,
      "source": 3
    },
    {
      "sampler": 0,
      "source": 4
    },
    {
      "sampler": 0,
      "source": 5
    },
    {
      "sampler": 0,
      "source": 6
    },
    {
      "sampler": 0,
      "source": 7
    },
    {
      "sampler": 0,
      "source": 8
    },
    {
      "sampler": 0,
      "source": 9
    },
    {
      "sampler": 0,
      "source": 10
    },
    {
      "sampler": 0,
      "source": 11
    },
    {
      "sampler": 0,
      "source": 12
    },
    {
      "sampler": 0,
      "source": 13
    },
    {
      "sampler": 0,
      "source": 14
    },
    {
      "sampler": 0,
      "source": 15
    },
    {
      "sampler": 0,
      "source": 16
    },
    {
      "sampler": 0,
      "source": 17
    },
    {
      "sampler": 0,
      "source": 18
    },
    {
      "sampler": 0,
      "source": 19
    }
  ]
}
